<svg height="150" viewBox="0 0 300 150" width="300" xmlns="http://www.w3.org/2000/svg"><g fill="none"><g transform="translate(5 5)"><circle cx="70" cy="70" fill="#ffd539" r="70"/><g fill="#000"><path d="m96.237 26.318c.31-.087.618-.162.925-.226l.91 1.114c-.0655997.2603896-.1272733.5217526-.185.784-.7.123-1.422.324-2.162.6.137-.751.308-1.509.512-2.272zm-19.69 21.105c-6.302 9.997-9.774 20.335-8.757 25.915 11.828 1.932 22.767 1.54 32.768-.708 7.74-1.74 14.343-4.449 19.74-7.613 1.122-.659 2.17-1.494 2.798-2.2-5.821-1.167-13.625-5.244-19.117-10.609-6.738-6.581-9.899-14.623-8.254-23.619-5.999 2.231-13.18 9.32-19.178 18.834zm21.891-21.525c-6.47 21.189 16.462 33.474 25.527 35.047 3.637.631.452 3.975-2.656 5.797-8.339 4.89-27.452 13.232-55.129 8.351-4.265-12.543 16.646-47.69 32.258-49.195z"/><path d="m91.911 53.26c-.3718887 1.733533.4417485 3.505028 1.999071 4.3524856 1.5573226.8474576 3.4866906.5686403 4.7403728-.6850418 1.2536821-1.2536822 1.5324992-3.1830502.6850418-4.7403728-.8474576-1.5573225-2.6189526-2.3709597-4.3524856-1.999071 1.167473.3193202 1.9387459 1.4288272 1.8313036 2.6344038-.1074423 1.2055765-1.0627625 2.1612077-2.268304 2.2690423s-2.3152994-.6630771-2.6349996-1.8304461zm28.912 11.84c3.313708 0 6-2.6862915 6-6s-2.686292-6-6-6-6 2.6862915-6 6c4.056 2.935 9.922 2.342 6 6z"/><path d="m66.414 129.676c1.38-15.783-3.734-22.945-12.801-37.257-9.068-14.312-5.2-40.608 19.425-38.454 39.868 3.488 24.058 62.492-6.624 75.711z"/><path d="m45.323 123.741c6.946-14.24 4.738-22.76 1.401-39.37-3.336-16.611 9.699-39.774 31.916-28.938 35.97 17.544.065 66.963-33.316 68.308z"/><path d="m27.81 110.703c11.587-10.805 12.578-19.55 15.416-36.253 2.839-16.704 23.308-33.657 40.167-15.58 27.293 29.27-23.937 62.539-55.583 51.832z"/><path d="m16.005 92.395c14.69-5.935 18.75-13.744 27.385-28.321s33.82-23.069 43.08-.15c14.993 37.108-44.757 49.808-70.464 28.471z"/><path d="m11.707 70.833c15.84-.277 22.429-6.112 35.715-16.626s39.842-9.416 40.273 15.3c.698 40.013-59.635 30.457-75.988 1.325z"/><path d="m15.18 49.3c14.887 5.418 23.13 2.332 39.301-2.723 16.171-5.054 40.57 5.488 32.115 28.716-13.687 37.607-66.589 7.064-71.416-25.993z"/><path d="m26.403 30.485c11.959 10.394 20.76 10.465 37.668 11.542s35.908 19.663 19.692 38.318c-26.257 30.204-64.7-17.268-57.36-49.86z"/><path d="m43.395 16.817c7.438 13.988 15.629 17.21 31.028 24.273 15.4 7.065 26.478 31.225 4.652 42.83-35.336 18.789-54.212-39.306-35.68-67.103z"/><path d="m64.342 10.278c1.93 15.725 8.423 21.668 20.268 33.782s13.529 38.639-11.007 41.652c-39.721 4.877-36.524-56.124-9.261-75.434z"/><path d="m86.119 11.685c-3.833 15.373.098 23.247 6.815 38.802 6.717 15.554-1.216 40.921-25.201 34.94-38.832-9.68-13.986-65.485 18.386-73.742z"/><path d="m106.059 20.72c-21.438 16.255-9.131 27.992-9.131 59.054 0 28.443-14.212 17.38-34.46 3.202-32.783-22.955 10.41-66.148 43.591-62.255z"/></g><path d="m96.826 72.485c-.067-.438-.187-1.767-.267-2.953-.13-1.944-.86-8.255-1.21-10.457l-.138-.866 1.122-.127c3.018-.34 4.596-3.934 2.807-6.394-.589-.809-2.35-1.697-3.367-1.697h-.805l.856.808c.633.597.856 1.006.856 1.57 0 1.021-.547 2.022-1.291 2.361-.574.262-.616.233-.744-.492-1.013-5.76-1.338-12.578-.758-15.875.209-1.187.591-2.752.85-3.477l.47-1.318.02 1.078c.012.594.223 2.05.469 3.237 1.634 7.875 6.989 14.764 15.61 20.083 2.289 1.412 6.323 3.333 8.594 4.093.968.323 1.862.69 1.985.813.412.412-.06 1.001-1.562 1.95-4.592 2.9-11.976 5.816-18.847 7.444-4.89 1.158-4.509 1.14-4.65.219z" fill="#fff"/></g><g transform="translate(150 5)"><path d="m86.0130719 0v.75490196c0 8.86666667-7.1875817 16.05196074-16.0519608 16.05196074-8.8666667 0-16.0519608-7.18758165-16.0519608-16.05196074 0-.26078431 0-.50784314 0-.75490196h-53.9091503v140h140v-140z" fill="#654ff0"/><path d="m32 76h9.2819117l6.3366897 34.027874h.114422l7.6159275-34.027874h8.6823405l6.8790499 34.445521h.135018l7.2223159-34.445521h9.1034134l-11.8289452 50h-9.21097l-6.821839-34.0278739h-.1784983l-7.3024113 34.0278739h-9.382603zm65.8361236 0h14.6322834l14.531593 50h-9.574832l-3.160335-11.126494h-16.6689956l-2.4394767 11.126494h-9.3253921zm5.5700624 12.3240574-4.0482499 18.3441786h12.6001489l-4.647821-18.3441786z" fill="#fff"/></g></g></svg>